<?xml version="1.0" encoding="UTF-8" standalone="no"?>
<!DOCTYPE svg PUBLIC "-//W3C//DTD SVG 1.1//EN"
 "http://www.w3.org/Graphics/SVG/1.1/DTD/svg11.dtd">
<!-- Generated by graphviz version 5.0.0 (20220707.1540)
 -->
<!-- Title: dependencies Pages: 1 -->
<svg width="5167pt" height="247pt"
 viewBox="0.00 0.00 5167.00 246.80" xmlns="http://www.w3.org/2000/svg" xmlns:xlink="http://www.w3.org/1999/xlink">
<g id="graph0" class="graph" transform="scale(1 1) rotate(0) translate(4 242.8)">
<title>dependencies</title>
<polygon fill="white" stroke="transparent" points="-4,4 -4,-242.8 5163,-242.8 5163,4 -4,4"/>
<text text-anchor="middle" x="2579.5" y="-8.2" font-family="sans-serif" font-size="14.00">dependencies</text>
<g id="clust1" class="cluster">
<title>cluster_AppModule</title>
<polygon fill="none" stroke="black" stroke-dasharray="1,5" points="8,-32.8 8,-230.8 5151,-230.8 5151,-32.8 8,-32.8"/>
</g>
<g id="clust28" class="cluster">
<title>cluster_AppModule_imports</title>
<polygon fill="none" stroke="black" points="4999,-40.8 4999,-92.8 5143,-92.8 5143,-40.8 4999,-40.8"/>
</g>
<g id="clust30" class="cluster">
<title>cluster_AppModule_bootstrap</title>
<polygon fill="none" stroke="black" points="2734,-170.8 2734,-222.8 2858,-222.8 2858,-170.8 2734,-170.8"/>
</g>
<g id="clust31" class="cluster">
<title>cluster_AppModule_providers</title>
<polygon fill="none" stroke="black" points="4829,-40.8 4829,-92.8 4991,-92.8 4991,-40.8 4829,-40.8"/>
</g>
<g id="clust2" class="cluster">
<title>cluster_AppModule_declarations</title>
<polygon fill="none" stroke="black" points="16,-40.8 16,-92.8 4821,-92.8 4821,-40.8 16,-40.8"/>
</g>
<!-- AlertGroupCardComponent -->
<g id="node1" class="node">
<title>AlertGroupCardComponent</title>
<polygon fill="#ffffb3" stroke="black" points="4812.58,-84.8 4639.42,-84.8 4639.42,-48.8 4812.58,-48.8 4812.58,-84.8"/>
<text text-anchor="middle" x="4726" y="-62.6" font-family="Times,serif" font-size="14.00">AlertGroupCardComponent</text>
</g>
<!-- AppModule -->
<g id="node26" class="node">
<title>AppModule</title>
<polygon fill="#8dd3c7" stroke="black" points="2837.66,-149.8 2834.66,-153.8 2813.66,-153.8 2810.66,-149.8 2754.34,-149.8 2754.34,-113.8 2837.66,-113.8 2837.66,-149.8"/>
<text text-anchor="middle" x="2796" y="-127.6" font-family="Times,serif" font-size="14.00">AppModule</text>
</g>
<!-- AlertGroupCardComponent&#45;&gt;AppModule -->
<g id="edge1" class="edge">
<title>AlertGroupCardComponent&#45;&gt;AppModule</title>
<path fill="none" stroke="black" d="M4726,-84.81C4726,-107.29 4726,-142.8 4726,-142.8 4726,-142.8 2848.11,-142.8 2848.11,-142.8"/>
<polygon fill="black" stroke="black" points="2848.11,-139.3 2838.11,-142.8 2848.11,-146.3 2848.11,-139.3"/>
</g>
<!-- AlertListComponent -->
<g id="node2" class="node">
<title>AlertListComponent</title>
<polygon fill="#ffffb3" stroke="black" points="4621.88,-84.8 4490.12,-84.8 4490.12,-48.8 4621.88,-48.8 4621.88,-84.8"/>
<text text-anchor="middle" x="4556" y="-62.6" font-family="Times,serif" font-size="14.00">AlertListComponent</text>
</g>
<!-- AlertListComponent&#45;&gt;AppModule -->
<g id="edge2" class="edge">
<title>AlertListComponent&#45;&gt;AppModule</title>
<path fill="none" stroke="black" d="M4556,-84.84C4556,-106.46 4556,-139.8 4556,-139.8 4556,-139.8 2847.77,-139.8 2847.77,-139.8"/>
<polygon fill="black" stroke="black" points="2847.77,-136.3 2837.77,-139.8 2847.77,-143.3 2847.77,-136.3"/>
</g>
<!-- AnomalyObserveSpectogramModalComponent -->
<g id="node3" class="node">
<title>AnomalyObserveSpectogramModalComponent</title>
<polygon fill="#ffffb3" stroke="black" points="4471.5,-84.8 4188.5,-84.8 4188.5,-48.8 4471.5,-48.8 4471.5,-84.8"/>
<text text-anchor="middle" x="4330" y="-62.6" font-family="Times,serif" font-size="14.00">AnomalyObserveSpectogramModalComponent</text>
</g>
<!-- AnomalyObserveSpectogramModalComponent&#45;&gt;AppModule -->
<g id="edge3" class="edge">
<title>AnomalyObserveSpectogramModalComponent&#45;&gt;AppModule</title>
<path fill="none" stroke="black" d="M4330,-85.08C4330,-106.12 4330,-137.8 4330,-137.8 4330,-137.8 2847.83,-137.8 2847.83,-137.8"/>
<polygon fill="black" stroke="black" points="2847.83,-134.3 2837.83,-137.8 2847.83,-141.3 2847.83,-134.3"/>
</g>
<!-- AppComponent -->
<g id="node4" class="node">
<title>AppComponent</title>
<polygon fill="#ffffb3" stroke="black" points="4170.94,-84.8 4065.06,-84.8 4065.06,-48.8 4170.94,-48.8 4170.94,-84.8"/>
<text text-anchor="middle" x="4118" y="-62.6" font-family="Times,serif" font-size="14.00">AppComponent</text>
</g>
<!-- AppComponent&#45;&gt;AppModule -->
<g id="edge4" class="edge">
<title>AppComponent&#45;&gt;AppModule</title>
<path fill="none" stroke="black" d="M4118,-85.02C4118,-105.17 4118,-134.8 4118,-134.8 4118,-134.8 2847.75,-134.8 2847.75,-134.8"/>
<polygon fill="black" stroke="black" points="2847.75,-131.3 2837.75,-134.8 2847.75,-138.3 2847.75,-131.3"/>
</g>
<!-- BreadcrumbsComponent -->
<g id="node5" class="node">
<title>BreadcrumbsComponent</title>
<polygon fill="#ffffb3" stroke="black" points="4046.97,-84.8 3891.03,-84.8 3891.03,-48.8 4046.97,-48.8 4046.97,-84.8"/>
<text text-anchor="middle" x="3969" y="-62.6" font-family="Times,serif" font-size="14.00">BreadcrumbsComponent</text>
</g>
<!-- BreadcrumbsComponent&#45;&gt;AppModule -->
<g id="edge5" class="edge">
<title>BreadcrumbsComponent&#45;&gt;AppModule</title>
<path fill="none" stroke="black" d="M3969,-84.91C3969,-104.14 3969,-131.8 3969,-131.8 3969,-131.8 2847.75,-131.8 2847.75,-131.8"/>
<polygon fill="black" stroke="black" points="2847.75,-128.3 2837.75,-131.8 2847.75,-135.3 2847.75,-128.3"/>
</g>
<!-- ConfigComponent -->
<g id="node6" class="node">
<title>ConfigComponent</title>
<polygon fill="#ffffb3" stroke="black" points="3873.22,-84.8 3752.78,-84.8 3752.78,-48.8 3873.22,-48.8 3873.22,-84.8"/>
<text text-anchor="middle" x="3813" y="-62.6" font-family="Times,serif" font-size="14.00">ConfigComponent</text>
</g>
<!-- ConfigComponent&#45;&gt;AppModule -->
<g id="edge6" class="edge">
<title>ConfigComponent&#45;&gt;AppModule</title>
<path fill="none" stroke="black" d="M3813,-85.02C3813,-103.63 3813,-129.8 3813,-129.8 3813,-129.8 2847.76,-129.8 2847.76,-129.8"/>
<polygon fill="black" stroke="black" points="2847.76,-126.3 2837.76,-129.8 2847.76,-133.3 2847.76,-126.3"/>
</g>
<!-- ExportConfirmationModalComponent -->
<g id="node7" class="node">
<title>ExportConfirmationModalComponent</title>
<polygon fill="#ffffb3" stroke="black" points="3734.92,-84.8 3503.08,-84.8 3503.08,-48.8 3734.92,-48.8 3734.92,-84.8"/>
<text text-anchor="middle" x="3619" y="-62.6" font-family="Times,serif" font-size="14.00">ExportConfirmationModalComponent</text>
</g>
<!-- ExportConfirmationModalComponent&#45;&gt;AppModule -->
<g id="edge7" class="edge">
<title>ExportConfirmationModalComponent&#45;&gt;AppModule</title>
<path fill="none" stroke="black" d="M3619,-84.8C3619,-102.48 3619,-126.8 3619,-126.8 3619,-126.8 2847.94,-126.8 2847.94,-126.8"/>
<polygon fill="black" stroke="black" points="2847.94,-123.3 2837.94,-126.8 2847.94,-130.3 2847.94,-123.3"/>
</g>
<!-- FeedbacksComponent -->
<g id="node8" class="node">
<title>FeedbacksComponent</title>
<polygon fill="#ffffb3" stroke="black" points="3485.42,-84.8 3344.58,-84.8 3344.58,-48.8 3485.42,-48.8 3485.42,-84.8"/>
<text text-anchor="middle" x="3415" y="-62.6" font-family="Times,serif" font-size="14.00">FeedbacksComponent</text>
</g>
<!-- FeedbacksComponent&#45;&gt;AppModule -->
<g id="edge8" class="edge">
<title>FeedbacksComponent&#45;&gt;AppModule</title>
<path fill="none" stroke="black" d="M3415,-84.83C3415,-101.86 3415,-124.8 3415,-124.8 3415,-124.8 2848.06,-124.8 2848.06,-124.8"/>
<polygon fill="black" stroke="black" points="2848.06,-121.3 2838.06,-124.8 2848.06,-128.3 2848.06,-121.3"/>
</g>
<!-- GaugeComponent -->
<g id="node9" class="node">
<title>GaugeComponent</title>
<polygon fill="#ffffb3" stroke="black" points="3326.87,-84.8 3209.13,-84.8 3209.13,-48.8 3326.87,-48.8 3326.87,-84.8"/>
<text text-anchor="middle" x="3268" y="-62.6" font-family="Times,serif" font-size="14.00">GaugeComponent</text>
</g>
<!-- GaugeComponent&#45;&gt;AppModule -->
<g id="edge9" class="edge">
<title>GaugeComponent&#45;&gt;AppModule</title>
<path fill="none" stroke="black" d="M3268,-84.81C3268,-100.85 3268,-121.8 3268,-121.8 3268,-121.8 2847.89,-121.8 2847.89,-121.8"/>
<polygon fill="black" stroke="black" points="2847.89,-118.3 2837.89,-121.8 2847.89,-125.3 2847.89,-118.3"/>
</g>
<!-- GenericCardComponent -->
<g id="node10" class="node">
<title>GenericCardComponent</title>
<polygon fill="#ffffb3" stroke="black" points="3191.35,-84.8 3038.65,-84.8 3038.65,-48.8 3191.35,-48.8 3191.35,-84.8"/>
<text text-anchor="middle" x="3115" y="-62.6" font-family="Times,serif" font-size="14.00">GenericCardComponent</text>
</g>
<!-- GenericCardComponent&#45;&gt;AppModule -->
<g id="edge10" class="edge">
<title>GenericCardComponent&#45;&gt;AppModule</title>
<path fill="none" stroke="black" d="M3115,-85.04C3115,-100.37 3115,-119.8 3115,-119.8 3115,-119.8 2847.7,-119.8 2847.7,-119.8"/>
<polygon fill="black" stroke="black" points="2847.7,-116.3 2837.7,-119.8 2847.7,-123.3 2847.7,-116.3"/>
</g>
<!-- NavbarComponent -->
<g id="node11" class="node">
<title>NavbarComponent</title>
<polygon fill="#ffffb3" stroke="black" points="3020.03,-84.8 2897.97,-84.8 2897.97,-48.8 3020.03,-48.8 3020.03,-84.8"/>
<text text-anchor="middle" x="2959" y="-62.6" font-family="Times,serif" font-size="14.00">NavbarComponent</text>
</g>
<!-- NavbarComponent&#45;&gt;AppModule -->
<g id="edge11" class="edge">
<title>NavbarComponent&#45;&gt;AppModule</title>
<path fill="none" stroke="black" d="M2959,-84.85C2959,-99.17 2959,-116.8 2959,-116.8 2959,-116.8 2847.98,-116.8 2847.98,-116.8"/>
<polygon fill="black" stroke="black" points="2847.98,-113.3 2837.98,-116.8 2847.98,-120.3 2847.98,-113.3"/>
</g>
<!-- OeeCalculationComponent -->
<g id="node12" class="node">
<title>OeeCalculationComponent</title>
<polygon fill="#ffffb3" stroke="black" points="2880.41,-84.8 2711.59,-84.8 2711.59,-48.8 2880.41,-48.8 2880.41,-84.8"/>
<text text-anchor="middle" x="2796" y="-62.6" font-family="Times,serif" font-size="14.00">OeeCalculationComponent</text>
</g>
<!-- OeeCalculationComponent&#45;&gt;AppModule -->
<g id="edge12" class="edge">
<title>OeeCalculationComponent&#45;&gt;AppModule</title>
<path fill="none" stroke="black" d="M2796,-84.91C2796,-84.91 2796,-103.79 2796,-103.79"/>
<polygon fill="black" stroke="black" points="2792.5,-103.79 2796,-113.79 2799.5,-103.79 2792.5,-103.79"/>
</g>
<!-- OeeChartComponent -->
<g id="node13" class="node">
<title>OeeChartComponent</title>
<polygon fill="#ffffb3" stroke="black" points="2693.47,-84.8 2558.53,-84.8 2558.53,-48.8 2693.47,-48.8 2693.47,-84.8"/>
<text text-anchor="middle" x="2626" y="-62.6" font-family="Times,serif" font-size="14.00">OeeChartComponent</text>
</g>
<!-- OeeChartComponent&#45;&gt;AppModule -->
<g id="edge13" class="edge">
<title>OeeChartComponent&#45;&gt;AppModule</title>
<path fill="none" stroke="black" d="M2626,-84.85C2626,-99.17 2626,-116.8 2626,-116.8 2626,-116.8 2743.98,-116.8 2743.98,-116.8"/>
<polygon fill="black" stroke="black" points="2743.98,-120.3 2753.98,-116.8 2743.98,-113.3 2743.98,-120.3"/>
</g>
<!-- PlantConfigComponent -->
<g id="node14" class="node">
<title>PlantConfigComponent</title>
<polygon fill="#ffffb3" stroke="black" points="2540.5,-84.8 2391.5,-84.8 2391.5,-48.8 2540.5,-48.8 2540.5,-84.8"/>
<text text-anchor="middle" x="2466" y="-62.6" font-family="Times,serif" font-size="14.00">PlantConfigComponent</text>
</g>
<!-- PlantConfigComponent&#45;&gt;AppModule -->
<g id="edge14" class="edge">
<title>PlantConfigComponent&#45;&gt;AppModule</title>
<path fill="none" stroke="black" d="M2466,-85.04C2466,-100.37 2466,-119.8 2466,-119.8 2466,-119.8 2744.21,-119.8 2744.21,-119.8"/>
<polygon fill="black" stroke="black" points="2744.21,-123.3 2754.21,-119.8 2744.21,-116.3 2744.21,-123.3"/>
</g>
<!-- PlantSelectionComponent -->
<g id="node15" class="node">
<title>PlantSelectionComponent</title>
<polygon fill="#ffffb3" stroke="black" points="2373.21,-84.8 2210.79,-84.8 2210.79,-48.8 2373.21,-48.8 2373.21,-84.8"/>
<text text-anchor="middle" x="2292" y="-62.6" font-family="Times,serif" font-size="14.00">PlantSelectionComponent</text>
</g>
<!-- PlantSelectionComponent&#45;&gt;AppModule -->
<g id="edge15" class="edge">
<title>PlantSelectionComponent&#45;&gt;AppModule</title>
<path fill="none" stroke="black" d="M2292,-84.81C2292,-100.85 2292,-121.8 2292,-121.8 2292,-121.8 2744.33,-121.8 2744.33,-121.8"/>
<polygon fill="black" stroke="black" points="2744.33,-125.3 2754.33,-121.8 2744.33,-118.3 2744.33,-125.3"/>
</g>
<!-- PredictiveMaintenanceAnomalyOverviewComponent -->
<g id="node16" class="node">
<title>PredictiveMaintenanceAnomalyOverviewComponent</title>
<polygon fill="#ffffb3" stroke="black" points="2192.69,-84.8 1875.31,-84.8 1875.31,-48.8 2192.69,-48.8 2192.69,-84.8"/>
<text text-anchor="middle" x="2034" y="-62.6" font-family="Times,serif" font-size="14.00">PredictiveMaintenanceAnomalyOverviewComponent</text>
</g>
<!-- PredictiveMaintenanceAnomalyOverviewComponent&#45;&gt;AppModule -->
<g id="edge16" class="edge">
<title>PredictiveMaintenanceAnomalyOverviewComponent&#45;&gt;AppModule</title>
<path fill="none" stroke="black" d="M2034,-84.83C2034,-101.86 2034,-124.8 2034,-124.8 2034,-124.8 2744.22,-124.8 2744.22,-124.8"/>
<polygon fill="black" stroke="black" points="2744.22,-128.3 2754.22,-124.8 2744.22,-121.3 2744.22,-128.3"/>
</g>
<!-- PredictiveMaintenanceChartComponent -->
<g id="node17" class="node">
<title>PredictiveMaintenanceChartComponent</title>
<polygon fill="#ffffb3" stroke="black" points="1856.99,-84.8 1615.01,-84.8 1615.01,-48.8 1856.99,-48.8 1856.99,-84.8"/>
<text text-anchor="middle" x="1736" y="-62.6" font-family="Times,serif" font-size="14.00">PredictiveMaintenanceChartComponent</text>
</g>
<!-- PredictiveMaintenanceChartComponent&#45;&gt;AppModule -->
<g id="edge17" class="edge">
<title>PredictiveMaintenanceChartComponent&#45;&gt;AppModule</title>
<path fill="none" stroke="black" d="M1736,-84.8C1736,-102.48 1736,-126.8 1736,-126.8 1736,-126.8 2744.12,-126.8 2744.12,-126.8"/>
<polygon fill="black" stroke="black" points="2744.12,-130.3 2754.12,-126.8 2744.12,-123.3 2744.12,-130.3"/>
</g>
<!-- PredictiveMaintenanceComponent -->
<g id="node18" class="node">
<title>PredictiveMaintenanceComponent</title>
<polygon fill="#ffffb3" stroke="black" points="1597.39,-84.8 1386.61,-84.8 1386.61,-48.8 1597.39,-48.8 1597.39,-84.8"/>
<text text-anchor="middle" x="1492" y="-62.6" font-family="Times,serif" font-size="14.00">PredictiveMaintenanceComponent</text>
</g>
<!-- PredictiveMaintenanceComponent&#45;&gt;AppModule -->
<g id="edge18" class="edge">
<title>PredictiveMaintenanceComponent&#45;&gt;AppModule</title>
<path fill="none" stroke="black" d="M1492,-85.02C1492,-103.63 1492,-129.8 1492,-129.8 1492,-129.8 2744.09,-129.8 2744.09,-129.8"/>
<polygon fill="black" stroke="black" points="2744.09,-133.3 2754.09,-129.8 2744.09,-126.3 2744.09,-133.3"/>
</g>
<!-- PredictiveMaintenanceMachineOverviewComponent -->
<g id="node19" class="node">
<title>PredictiveMaintenanceMachineOverviewComponent</title>
<polygon fill="#ffffb3" stroke="black" points="1369.07,-84.8 1054.93,-84.8 1054.93,-48.8 1369.07,-48.8 1369.07,-84.8"/>
<text text-anchor="middle" x="1212" y="-62.6" font-family="Times,serif" font-size="14.00">PredictiveMaintenanceMachineOverviewComponent</text>
</g>
<!-- PredictiveMaintenanceMachineOverviewComponent&#45;&gt;AppModule -->
<g id="edge19" class="edge">
<title>PredictiveMaintenanceMachineOverviewComponent&#45;&gt;AppModule</title>
<path fill="none" stroke="black" d="M1212,-84.91C1212,-104.14 1212,-131.8 1212,-131.8 1212,-131.8 2744.04,-131.8 2744.04,-131.8"/>
<polygon fill="black" stroke="black" points="2744.04,-135.3 2754.04,-131.8 2744.04,-128.3 2744.04,-135.3"/>
</g>
<!-- SignInComponent -->
<g id="node20" class="node">
<title>SignInComponent</title>
<polygon fill="#ffffb3" stroke="black" points="1036.17,-84.8 917.83,-84.8 917.83,-48.8 1036.17,-48.8 1036.17,-84.8"/>
<text text-anchor="middle" x="977" y="-62.6" font-family="Times,serif" font-size="14.00">SignInComponent</text>
</g>
<!-- SignInComponent&#45;&gt;AppModule -->
<g id="edge20" class="edge">
<title>SignInComponent&#45;&gt;AppModule</title>
<path fill="none" stroke="black" d="M977,-85.02C977,-105.17 977,-134.8 977,-134.8 977,-134.8 2744.15,-134.8 2744.15,-134.8"/>
<polygon fill="black" stroke="black" points="2744.15,-138.3 2754.15,-134.8 2744.15,-131.3 2744.15,-138.3"/>
</g>
<!-- SignUpComponent -->
<g id="node21" class="node">
<title>SignUpComponent</title>
<polygon fill="#ffffb3" stroke="black" points="900.12,-84.8 775.88,-84.8 775.88,-48.8 900.12,-48.8 900.12,-84.8"/>
<text text-anchor="middle" x="838" y="-62.6" font-family="Times,serif" font-size="14.00">SignUpComponent</text>
</g>
<!-- SignUpComponent&#45;&gt;AppModule -->
<g id="edge21" class="edge">
<title>SignUpComponent&#45;&gt;AppModule</title>
<path fill="none" stroke="black" d="M838,-85.08C838,-106.12 838,-137.8 838,-137.8 838,-137.8 2744.2,-137.8 2744.2,-137.8"/>
<polygon fill="black" stroke="black" points="2744.2,-141.3 2754.2,-137.8 2744.2,-134.3 2744.2,-141.3"/>
</g>
<!-- StationDetailsComponent -->
<g id="node22" class="node">
<title>StationDetailsComponent</title>
<polygon fill="#ffffb3" stroke="black" points="758.16,-84.8 597.84,-84.8 597.84,-48.8 758.16,-48.8 758.16,-84.8"/>
<text text-anchor="middle" x="678" y="-62.6" font-family="Times,serif" font-size="14.00">StationDetailsComponent</text>
</g>
<!-- StationDetailsComponent&#45;&gt;AppModule -->
<g id="edge22" class="edge">
<title>StationDetailsComponent&#45;&gt;AppModule</title>
<path fill="none" stroke="black" d="M678,-84.84C678,-106.46 678,-139.8 678,-139.8 678,-139.8 2744.17,-139.8 2744.17,-139.8"/>
<polygon fill="black" stroke="black" points="2744.17,-143.3 2754.17,-139.8 2744.17,-136.3 2744.17,-143.3"/>
</g>
<!-- StationSelectionComponent -->
<g id="node23" class="node">
<title>StationSelectionComponent</title>
<polygon fill="#ffffb3" stroke="black" points="579.6,-84.8 406.4,-84.8 406.4,-48.8 579.6,-48.8 579.6,-84.8"/>
<text text-anchor="middle" x="493" y="-62.6" font-family="Times,serif" font-size="14.00">StationSelectionComponent</text>
</g>
<!-- StationSelectionComponent&#45;&gt;AppModule -->
<g id="edge23" class="edge">
<title>StationSelectionComponent&#45;&gt;AppModule</title>
<path fill="none" stroke="black" d="M493,-84.81C493,-107.29 493,-142.8 493,-142.8 493,-142.8 2744.06,-142.8 2744.06,-142.8"/>
<polygon fill="black" stroke="black" points="2744.06,-146.3 2754.06,-142.8 2744.06,-139.3 2744.06,-146.3"/>
</g>
<!-- StatusWidgetComponent -->
<g id="node24" class="node">
<title>StatusWidgetComponent</title>
<polygon fill="#ffffb3" stroke="black" points="388.27,-84.8 231.73,-84.8 231.73,-48.8 388.27,-48.8 388.27,-84.8"/>
<text text-anchor="middle" x="310" y="-62.6" font-family="Times,serif" font-size="14.00">StatusWidgetComponent</text>
</g>
<!-- StatusWidgetComponent&#45;&gt;AppModule -->
<g id="edge24" class="edge">
<title>StatusWidgetComponent&#45;&gt;AppModule</title>
<path fill="none" stroke="black" d="M310,-84.89C310,-107.93 310,-144.8 310,-144.8 310,-144.8 2744.15,-144.8 2744.15,-144.8"/>
<polygon fill="black" stroke="black" points="2744.15,-148.3 2754.15,-144.8 2744.15,-141.3 2744.15,-148.3"/>
</g>
<!-- WorkstationConfigComponent -->
<g id="node25" class="node">
<title>WorkstationConfigComponent</title>
<polygon fill="#ffffb3" stroke="black" points="213.93,-84.8 24.07,-84.8 24.07,-48.8 213.93,-48.8 213.93,-84.8"/>
<text text-anchor="middle" x="119" y="-62.6" font-family="Times,serif" font-size="14.00">WorkstationConfigComponent</text>
</g>
<!-- WorkstationConfigComponent&#45;&gt;AppModule -->
<g id="edge25" class="edge">
<title>WorkstationConfigComponent&#45;&gt;AppModule</title>
<path fill="none" stroke="black" d="M119,-85.18C119,-109.08 119,-147.8 119,-147.8 119,-147.8 2744.22,-147.8 2744.22,-147.8"/>
<polygon fill="black" stroke="black" points="2744.22,-151.3 2754.22,-147.8 2744.22,-144.3 2744.22,-151.3"/>
</g>
<!-- AppComponent  -->
<g id="node28" class="node">
<title>AppComponent </title>
<polygon fill="#80b1d3" stroke="black" points="2850.44,-214.8 2741.56,-214.8 2741.56,-178.8 2850.44,-178.8 2850.44,-214.8"/>
<text text-anchor="middle" x="2796" y="-192.6" font-family="Times,serif" font-size="14.00">AppComponent </text>
</g>
<!-- AppModule&#45;&gt;AppComponent  -->
<g id="edge27" class="edge">
<title>AppModule&#45;&gt;AppComponent </title>
<path fill="none" stroke="black" stroke-dasharray="1,5" d="M2796,-149.91C2796,-149.91 2796,-168.79 2796,-168.79"/>
<polygon fill="black" stroke="black" points="2792.5,-168.79 2796,-178.79 2799.5,-168.79 2792.5,-168.79"/>
</g>
<!-- AppRoutingModule -->
<g id="node27" class="node">
<title>AppRoutingModule</title>
<polygon fill="#8dd3c7" stroke="black" points="5135.28,-84.8 5132.28,-88.8 5111.28,-88.8 5108.28,-84.8 5006.72,-84.8 5006.72,-48.8 5135.28,-48.8 5135.28,-84.8"/>
<text text-anchor="middle" x="5071" y="-62.6" font-family="Times,serif" font-size="14.00">AppRoutingModule</text>
</g>
<!-- AppRoutingModule&#45;&gt;AppModule -->
<g id="edge26" class="edge">
<title>AppRoutingModule&#45;&gt;AppModule</title>
<path fill="none" stroke="black" d="M5071,-85.18C5071,-109.08 5071,-147.8 5071,-147.8 5071,-147.8 2847.92,-147.8 2847.92,-147.8"/>
<polygon fill="black" stroke="black" points="2847.92,-144.3 2837.92,-147.8 2847.92,-151.3 2847.92,-144.3"/>
</g>
<!-- AuthInterceptor -->
<g id="node29" class="node">
<title>AuthInterceptor</title>
<ellipse fill="#fdb462" stroke="black" cx="4910" cy="-66.8" rx="72.92" ry="18"/>
<text text-anchor="middle" x="4910" y="-62.6" font-family="Times,serif" font-size="14.00">AuthInterceptor</text>
</g>
<!-- AuthInterceptor&#45;&gt;AppModule -->
<g id="edge28" class="edge">
<title>AuthInterceptor&#45;&gt;AppModule</title>
<path fill="none" stroke="black" d="M4910,-84.89C4910,-107.93 4910,-144.8 4910,-144.8 4910,-144.8 2847.75,-144.8 2847.75,-144.8"/>
<polygon fill="black" stroke="black" points="2847.75,-141.3 2837.75,-144.8 2847.75,-148.3 2847.75,-141.3"/>
</g>
</g>
</svg>
