<?xml version="1.0" encoding="UTF-8" standalone="no"?>
<!DOCTYPE svg PUBLIC "-//W3C//DTD SVG 1.1//EN"
 "http://www.w3.org/Graphics/SVG/1.1/DTD/svg11.dtd">
<!-- Generated by graphviz version 5.0.0 (20220707.1540)
 -->
<!-- Title: dependencies Pages: 1 -->
<svg width="5167pt" height="247pt"
 viewBox="0.00 0.00 5167.00 246.80" xmlns="http://www.w3.org/2000/svg" xmlns:xlink="http://www.w3.org/1999/xlink">
<g id="graph0" class="graph" transform="scale(1 1) rotate(0) translate(4 242.8)">
<title>dependencies</title>
<polygon fill="white" stroke="transparent" points="-4,4 -4,-242.8 5163,-242.8 5163,4 -4,4"/>
<text text-anchor="middle" x="2579.5" y="-8.2" font-family="sans-serif" font-size="14.00">dependencies</text>
<g id="clust1" class="cluster">
<title>cluster_AppModule</title>
<polygon fill="none" stroke="black" stroke-dasharray="1,5" points="8,-32.8 8,-230.8 5151,-230.8 5151,-32.8 8,-32.8"/>
</g>
<g id="clust2" class="cluster">
<title>cluster_AppModule_declarations</title>
<polygon fill="none" stroke="black" points="338,-40.8 338,-92.8 5143,-92.8 5143,-40.8 338,-40.8"/>
</g>
<g id="clust28" class="cluster">
<title>cluster_AppModule_imports</title>
<polygon fill="none" stroke="black" points="186,-40.8 186,-92.8 330,-92.8 330,-40.8 186,-40.8"/>
</g>
<g id="clust30" class="cluster">
<title>cluster_AppModule_bootstrap</title>
<polygon fill="none" stroke="black" points="2726,-170.8 2726,-222.8 2850,-222.8 2850,-170.8 2726,-170.8"/>
</g>
<g id="clust31" class="cluster">
<title>cluster_AppModule_providers</title>
<polygon fill="none" stroke="black" points="16,-40.8 16,-92.8 178,-92.8 178,-40.8 16,-40.8"/>
</g>
<!-- AlertGroupCardComponent -->
<g id="node1" class="node">
<title>AlertGroupCardComponent</title>
<polygon fill="#ffffb3" stroke="black" points="5134.58,-84.8 4961.42,-84.8 4961.42,-48.8 5134.58,-48.8 5134.58,-84.8"/>
<text text-anchor="middle" x="5048" y="-62.6" font-family="Times,serif" font-size="14.00">AlertGroupCardComponent</text>
</g>
<!-- AppModule -->
<g id="node26" class="node">
<title>AppModule</title>
<polygon fill="#8dd3c7" stroke="black" points="2829.66,-149.8 2826.66,-153.8 2805.66,-153.8 2802.66,-149.8 2746.34,-149.8 2746.34,-113.8 2829.66,-113.8 2829.66,-149.8"/>
<text text-anchor="middle" x="2788" y="-127.6" font-family="Times,serif" font-size="14.00">AppModule</text>
</g>
<!-- AlertGroupCardComponent&#45;&gt;AppModule -->
<g id="edge1" class="edge">
<title>AlertGroupCardComponent&#45;&gt;AppModule</title>
<path fill="none" stroke="black" d="M5048,-85.18C5048,-109.08 5048,-147.8 5048,-147.8 5048,-147.8 2840.14,-147.8 2840.14,-147.8"/>
<polygon fill="black" stroke="black" points="2840.14,-144.3 2830.14,-147.8 2840.14,-151.3 2840.14,-144.3"/>
</g>
<!-- AlertListComponent -->
<g id="node2" class="node">
<title>AlertListComponent</title>
<polygon fill="#ffffb3" stroke="black" points="4943.88,-84.8 4812.12,-84.8 4812.12,-48.8 4943.88,-48.8 4943.88,-84.8"/>
<text text-anchor="middle" x="4878" y="-62.6" font-family="Times,serif" font-size="14.00">AlertListComponent</text>
</g>
<!-- AlertListComponent&#45;&gt;AppModule -->
<g id="edge2" class="edge">
<title>AlertListComponent&#45;&gt;AppModule</title>
<path fill="none" stroke="black" d="M4878,-84.89C4878,-107.93 4878,-144.8 4878,-144.8 4878,-144.8 2839.75,-144.8 2839.75,-144.8"/>
<polygon fill="black" stroke="black" points="2839.75,-141.3 2829.75,-144.8 2839.75,-148.3 2839.75,-141.3"/>
</g>
<!-- AnomalyObserveSpectogramModalComponent -->
<g id="node3" class="node">
<title>AnomalyObserveSpectogramModalComponent</title>
<polygon fill="#ffffb3" stroke="black" points="4793.5,-84.8 4510.5,-84.8 4510.5,-48.8 4793.5,-48.8 4793.5,-84.8"/>
<text text-anchor="middle" x="4652" y="-62.6" font-family="Times,serif" font-size="14.00">AnomalyObserveSpectogramModalComponent</text>
</g>
<!-- AnomalyObserveSpectogramModalComponent&#45;&gt;AppModule -->
<g id="edge3" class="edge">
<title>AnomalyObserveSpectogramModalComponent&#45;&gt;AppModule</title>
<path fill="none" stroke="black" d="M4652,-84.81C4652,-107.29 4652,-142.8 4652,-142.8 4652,-142.8 2839.99,-142.8 2839.99,-142.8"/>
<polygon fill="black" stroke="black" points="2839.99,-139.3 2829.99,-142.8 2839.99,-146.3 2839.99,-139.3"/>
</g>
<!-- AppComponent -->
<g id="node4" class="node">
<title>AppComponent</title>
<polygon fill="#ffffb3" stroke="black" points="4492.94,-84.8 4387.06,-84.8 4387.06,-48.8 4492.94,-48.8 4492.94,-84.8"/>
<text text-anchor="middle" x="4440" y="-62.6" font-family="Times,serif" font-size="14.00">AppComponent</text>
</g>
<!-- AppComponent&#45;&gt;AppModule -->
<g id="edge4" class="edge">
<title>AppComponent&#45;&gt;AppModule</title>
<path fill="none" stroke="black" d="M4440,-84.84C4440,-106.46 4440,-139.8 4440,-139.8 4440,-139.8 2840.08,-139.8 2840.08,-139.8"/>
<polygon fill="black" stroke="black" points="2840.08,-136.3 2830.08,-139.8 2840.08,-143.3 2840.08,-136.3"/>
</g>
<!-- BreadcrumbsComponent -->
<g id="node5" class="node">
<title>BreadcrumbsComponent</title>
<polygon fill="#ffffb3" stroke="black" points="4368.97,-84.8 4213.03,-84.8 4213.03,-48.8 4368.97,-48.8 4368.97,-84.8"/>
<text text-anchor="middle" x="4291" y="-62.6" font-family="Times,serif" font-size="14.00">BreadcrumbsComponent</text>
</g>
<!-- BreadcrumbsComponent&#45;&gt;AppModule -->
<g id="edge5" class="edge">
<title>BreadcrumbsComponent&#45;&gt;AppModule</title>
<path fill="none" stroke="black" d="M4291,-85.08C4291,-106.12 4291,-137.8 4291,-137.8 4291,-137.8 2839.77,-137.8 2839.77,-137.8"/>
<polygon fill="black" stroke="black" points="2839.77,-134.3 2829.77,-137.8 2839.77,-141.3 2839.77,-134.3"/>
</g>
<!-- ConfigComponent -->
<g id="node6" class="node">
<title>ConfigComponent</title>
<polygon fill="#ffffb3" stroke="black" points="4195.22,-84.8 4074.78,-84.8 4074.78,-48.8 4195.22,-48.8 4195.22,-84.8"/>
<text text-anchor="middle" x="4135" y="-62.6" font-family="Times,serif" font-size="14.00">ConfigComponent</text>
</g>
<!-- ConfigComponent&#45;&gt;AppModule -->
<g id="edge6" class="edge">
<title>ConfigComponent&#45;&gt;AppModule</title>
<path fill="none" stroke="black" d="M4135,-85.02C4135,-105.17 4135,-134.8 4135,-134.8 4135,-134.8 2839.79,-134.8 2839.79,-134.8"/>
<polygon fill="black" stroke="black" points="2839.79,-131.3 2829.79,-134.8 2839.79,-138.3 2839.79,-131.3"/>
</g>
<!-- ExportConfirmationModalComponent -->
<g id="node7" class="node">
<title>ExportConfirmationModalComponent</title>
<polygon fill="#ffffb3" stroke="black" points="4056.92,-84.8 3825.08,-84.8 3825.08,-48.8 4056.92,-48.8 4056.92,-84.8"/>
<text text-anchor="middle" x="3941" y="-62.6" font-family="Times,serif" font-size="14.00">ExportConfirmationModalComponent</text>
</g>
<!-- ExportConfirmationModalComponent&#45;&gt;AppModule -->
<g id="edge7" class="edge">
<title>ExportConfirmationModalComponent&#45;&gt;AppModule</title>
<path fill="none" stroke="black" d="M3941,-84.91C3941,-104.14 3941,-131.8 3941,-131.8 3941,-131.8 2839.72,-131.8 2839.72,-131.8"/>
<polygon fill="black" stroke="black" points="2839.72,-128.3 2829.72,-131.8 2839.72,-135.3 2839.72,-128.3"/>
</g>
<!-- FeedbacksComponent -->
<g id="node8" class="node">
<title>FeedbacksComponent</title>
<polygon fill="#ffffb3" stroke="black" points="3807.42,-84.8 3666.58,-84.8 3666.58,-48.8 3807.42,-48.8 3807.42,-84.8"/>
<text text-anchor="middle" x="3737" y="-62.6" font-family="Times,serif" font-size="14.00">FeedbacksComponent</text>
</g>
<!-- FeedbacksComponent&#45;&gt;AppModule -->
<g id="edge8" class="edge">
<title>FeedbacksComponent&#45;&gt;AppModule</title>
<path fill="none" stroke="black" d="M3737,-85.02C3737,-103.63 3737,-129.8 3737,-129.8 3737,-129.8 2839.69,-129.8 2839.69,-129.8"/>
<polygon fill="black" stroke="black" points="2839.69,-126.3 2829.69,-129.8 2839.69,-133.3 2839.69,-126.3"/>
</g>
<!-- GaugeComponent -->
<g id="node9" class="node">
<title>GaugeComponent</title>
<polygon fill="#ffffb3" stroke="black" points="3648.87,-84.8 3531.13,-84.8 3531.13,-48.8 3648.87,-48.8 3648.87,-84.8"/>
<text text-anchor="middle" x="3590" y="-62.6" font-family="Times,serif" font-size="14.00">GaugeComponent</text>
</g>
<!-- GaugeComponent&#45;&gt;AppModule -->
<g id="edge9" class="edge">
<title>GaugeComponent&#45;&gt;AppModule</title>
<path fill="none" stroke="black" d="M3590,-84.8C3590,-102.48 3590,-126.8 3590,-126.8 3590,-126.8 2839.71,-126.8 2839.71,-126.8"/>
<polygon fill="black" stroke="black" points="2839.71,-123.3 2829.71,-126.8 2839.71,-130.3 2839.71,-123.3"/>
</g>
<!-- GenericCardComponent -->
<g id="node10" class="node">
<title>GenericCardComponent</title>
<polygon fill="#ffffb3" stroke="black" points="3513.35,-84.8 3360.65,-84.8 3360.65,-48.8 3513.35,-48.8 3513.35,-84.8"/>
<text text-anchor="middle" x="3437" y="-62.6" font-family="Times,serif" font-size="14.00">GenericCardComponent</text>
</g>
<!-- GenericCardComponent&#45;&gt;AppModule -->
<g id="edge10" class="edge">
<title>GenericCardComponent&#45;&gt;AppModule</title>
<path fill="none" stroke="black" d="M3437,-84.83C3437,-101.86 3437,-124.8 3437,-124.8 3437,-124.8 2840.08,-124.8 2840.08,-124.8"/>
<polygon fill="black" stroke="black" points="2840.08,-121.3 2830.08,-124.8 2840.08,-128.3 2840.08,-121.3"/>
</g>
<!-- NavbarComponent -->
<g id="node11" class="node">
<title>NavbarComponent</title>
<polygon fill="#ffffb3" stroke="black" points="3342.03,-84.8 3219.97,-84.8 3219.97,-48.8 3342.03,-48.8 3342.03,-84.8"/>
<text text-anchor="middle" x="3281" y="-62.6" font-family="Times,serif" font-size="14.00">NavbarComponent</text>
</g>
<!-- NavbarComponent&#45;&gt;AppModule -->
<g id="edge11" class="edge">
<title>NavbarComponent&#45;&gt;AppModule</title>
<path fill="none" stroke="black" d="M3281,-84.81C3281,-100.85 3281,-121.8 3281,-121.8 3281,-121.8 2840.03,-121.8 2840.03,-121.8"/>
<polygon fill="black" stroke="black" points="2840.03,-118.3 2830.03,-121.8 2840.03,-125.3 2840.03,-118.3"/>
</g>
<!-- OeeCalculationComponent -->
<g id="node12" class="node">
<title>OeeCalculationComponent</title>
<polygon fill="#ffffb3" stroke="black" points="3202.41,-84.8 3033.59,-84.8 3033.59,-48.8 3202.41,-48.8 3202.41,-84.8"/>
<text text-anchor="middle" x="3118" y="-62.6" font-family="Times,serif" font-size="14.00">OeeCalculationComponent</text>
</g>
<!-- OeeCalculationComponent&#45;&gt;AppModule -->
<g id="edge12" class="edge">
<title>OeeCalculationComponent&#45;&gt;AppModule</title>
<path fill="none" stroke="black" d="M3118,-85.04C3118,-100.37 3118,-119.8 3118,-119.8 3118,-119.8 2839.79,-119.8 2839.79,-119.8"/>
<polygon fill="black" stroke="black" points="2839.79,-116.3 2829.79,-119.8 2839.79,-123.3 2839.79,-116.3"/>
</g>
<!-- OeeChartComponent -->
<g id="node13" class="node">
<title>OeeChartComponent</title>
<polygon fill="#ffffb3" stroke="black" points="3015.47,-84.8 2880.53,-84.8 2880.53,-48.8 3015.47,-48.8 3015.47,-84.8"/>
<text text-anchor="middle" x="2948" y="-62.6" font-family="Times,serif" font-size="14.00">OeeChartComponent</text>
</g>
<!-- OeeChartComponent&#45;&gt;AppModule -->
<g id="edge13" class="edge">
<title>OeeChartComponent&#45;&gt;AppModule</title>
<path fill="none" stroke="black" d="M2948,-84.85C2948,-99.17 2948,-116.8 2948,-116.8 2948,-116.8 2840.04,-116.8 2840.04,-116.8"/>
<polygon fill="black" stroke="black" points="2840.04,-113.3 2830.04,-116.8 2840.04,-120.3 2840.04,-113.3"/>
</g>
<!-- PlantConfigComponent -->
<g id="node14" class="node">
<title>PlantConfigComponent</title>
<polygon fill="#ffffb3" stroke="black" points="2862.5,-84.8 2713.5,-84.8 2713.5,-48.8 2862.5,-48.8 2862.5,-84.8"/>
<text text-anchor="middle" x="2788" y="-62.6" font-family="Times,serif" font-size="14.00">PlantConfigComponent</text>
</g>
<!-- PlantConfigComponent&#45;&gt;AppModule -->
<g id="edge14" class="edge">
<title>PlantConfigComponent&#45;&gt;AppModule</title>
<path fill="none" stroke="black" d="M2788,-84.91C2788,-84.91 2788,-103.79 2788,-103.79"/>
<polygon fill="black" stroke="black" points="2784.5,-103.79 2788,-113.79 2791.5,-103.79 2784.5,-103.79"/>
</g>
<!-- PlantSelectionComponent -->
<g id="node15" class="node">
<title>PlantSelectionComponent</title>
<polygon fill="#ffffb3" stroke="black" points="2695.21,-84.8 2532.79,-84.8 2532.79,-48.8 2695.21,-48.8 2695.21,-84.8"/>
<text text-anchor="middle" x="2614" y="-62.6" font-family="Times,serif" font-size="14.00">PlantSelectionComponent</text>
</g>
<!-- PlantSelectionComponent&#45;&gt;AppModule -->
<g id="edge15" class="edge">
<title>PlantSelectionComponent&#45;&gt;AppModule</title>
<path fill="none" stroke="black" d="M2614,-84.85C2614,-99.17 2614,-116.8 2614,-116.8 2614,-116.8 2736.32,-116.8 2736.32,-116.8"/>
<polygon fill="black" stroke="black" points="2736.32,-120.3 2746.32,-116.8 2736.32,-113.3 2736.32,-120.3"/>
</g>
<!-- PredictiveMaintenanceAnomalyOverviewComponent -->
<g id="node16" class="node">
<title>PredictiveMaintenanceAnomalyOverviewComponent</title>
<polygon fill="#ffffb3" stroke="black" points="2514.69,-84.8 2197.31,-84.8 2197.31,-48.8 2514.69,-48.8 2514.69,-84.8"/>
<text text-anchor="middle" x="2356" y="-62.6" font-family="Times,serif" font-size="14.00">PredictiveMaintenanceAnomalyOverviewComponent</text>
</g>
<!-- PredictiveMaintenanceAnomalyOverviewComponent&#45;&gt;AppModule -->
<g id="edge16" class="edge">
<title>PredictiveMaintenanceAnomalyOverviewComponent&#45;&gt;AppModule</title>
<path fill="none" stroke="black" d="M2356,-85.04C2356,-100.37 2356,-119.8 2356,-119.8 2356,-119.8 2736.19,-119.8 2736.19,-119.8"/>
<polygon fill="black" stroke="black" points="2736.19,-123.3 2746.19,-119.8 2736.19,-116.3 2736.19,-123.3"/>
</g>
<!-- PredictiveMaintenanceChartComponent -->
<g id="node17" class="node">
<title>PredictiveMaintenanceChartComponent</title>
<polygon fill="#ffffb3" stroke="black" points="2178.99,-84.8 1937.01,-84.8 1937.01,-48.8 2178.99,-48.8 2178.99,-84.8"/>
<text text-anchor="middle" x="2058" y="-62.6" font-family="Times,serif" font-size="14.00">PredictiveMaintenanceChartComponent</text>
</g>
<!-- PredictiveMaintenanceChartComponent&#45;&gt;AppModule -->
<g id="edge17" class="edge">
<title>PredictiveMaintenanceChartComponent&#45;&gt;AppModule</title>
<path fill="none" stroke="black" d="M2058,-84.81C2058,-100.85 2058,-121.8 2058,-121.8 2058,-121.8 2736.13,-121.8 2736.13,-121.8"/>
<polygon fill="black" stroke="black" points="2736.13,-125.3 2746.13,-121.8 2736.13,-118.3 2736.13,-125.3"/>
</g>
<!-- PredictiveMaintenanceComponent -->
<g id="node18" class="node">
<title>PredictiveMaintenanceComponent</title>
<polygon fill="#ffffb3" stroke="black" points="1919.39,-84.8 1708.61,-84.8 1708.61,-48.8 1919.39,-48.8 1919.39,-84.8"/>
<text text-anchor="middle" x="1814" y="-62.6" font-family="Times,serif" font-size="14.00">PredictiveMaintenanceComponent</text>
</g>
<!-- PredictiveMaintenanceComponent&#45;&gt;AppModule -->
<g id="edge18" class="edge">
<title>PredictiveMaintenanceComponent&#45;&gt;AppModule</title>
<path fill="none" stroke="black" d="M1814,-84.83C1814,-101.86 1814,-124.8 1814,-124.8 1814,-124.8 2736.15,-124.8 2736.15,-124.8"/>
<polygon fill="black" stroke="black" points="2736.15,-128.3 2746.15,-124.8 2736.15,-121.3 2736.15,-128.3"/>
</g>
<!-- PredictiveMaintenanceMachineOverviewComponent -->
<g id="node19" class="node">
<title>PredictiveMaintenanceMachineOverviewComponent</title>
<polygon fill="#ffffb3" stroke="black" points="1691.07,-84.8 1376.93,-84.8 1376.93,-48.8 1691.07,-48.8 1691.07,-84.8"/>
<text text-anchor="middle" x="1534" y="-62.6" font-family="Times,serif" font-size="14.00">PredictiveMaintenanceMachineOverviewComponent</text>
</g>
<!-- PredictiveMaintenanceMachineOverviewComponent&#45;&gt;AppModule -->
<g id="edge19" class="edge">
<title>PredictiveMaintenanceMachineOverviewComponent&#45;&gt;AppModule</title>
<path fill="none" stroke="black" d="M1534,-84.8C1534,-102.48 1534,-126.8 1534,-126.8 1534,-126.8 2736.28,-126.8 2736.28,-126.8"/>
<polygon fill="black" stroke="black" points="2736.28,-130.3 2746.28,-126.8 2736.28,-123.3 2736.28,-130.3"/>
</g>
<!-- SignInComponent -->
<g id="node20" class="node">
<title>SignInComponent</title>
<polygon fill="#ffffb3" stroke="black" points="1358.17,-84.8 1239.83,-84.8 1239.83,-48.8 1358.17,-48.8 1358.17,-84.8"/>
<text text-anchor="middle" x="1299" y="-62.6" font-family="Times,serif" font-size="14.00">SignInComponent</text>
</g>
<!-- SignInComponent&#45;&gt;AppModule -->
<g id="edge20" class="edge">
<title>SignInComponent&#45;&gt;AppModule</title>
<path fill="none" stroke="black" d="M1299,-85.02C1299,-103.63 1299,-129.8 1299,-129.8 1299,-129.8 2736.23,-129.8 2736.23,-129.8"/>
<polygon fill="black" stroke="black" points="2736.23,-133.3 2746.23,-129.8 2736.23,-126.3 2736.23,-133.3"/>
</g>
<!-- SignUpComponent -->
<g id="node21" class="node">
<title>SignUpComponent</title>
<polygon fill="#ffffb3" stroke="black" points="1222.12,-84.8 1097.88,-84.8 1097.88,-48.8 1222.12,-48.8 1222.12,-84.8"/>
<text text-anchor="middle" x="1160" y="-62.6" font-family="Times,serif" font-size="14.00">SignUpComponent</text>
</g>
<!-- SignUpComponent&#45;&gt;AppModule -->
<g id="edge21" class="edge">
<title>SignUpComponent&#45;&gt;AppModule</title>
<path fill="none" stroke="black" d="M1160,-84.91C1160,-104.14 1160,-131.8 1160,-131.8 1160,-131.8 2736.12,-131.8 2736.12,-131.8"/>
<polygon fill="black" stroke="black" points="2736.12,-135.3 2746.12,-131.8 2736.12,-128.3 2736.12,-135.3"/>
</g>
<!-- StationDetailsComponent -->
<g id="node22" class="node">
<title>StationDetailsComponent</title>
<polygon fill="#ffffb3" stroke="black" points="1080.16,-84.8 919.84,-84.8 919.84,-48.8 1080.16,-48.8 1080.16,-84.8"/>
<text text-anchor="middle" x="1000" y="-62.6" font-family="Times,serif" font-size="14.00">StationDetailsComponent</text>
</g>
<!-- StationDetailsComponent&#45;&gt;AppModule -->
<g id="edge22" class="edge">
<title>StationDetailsComponent&#45;&gt;AppModule</title>
<path fill="none" stroke="black" d="M1000,-85.02C1000,-105.17 1000,-134.8 1000,-134.8 1000,-134.8 2736,-134.8 2736,-134.8"/>
<polygon fill="black" stroke="black" points="2736,-138.3 2746,-134.8 2736,-131.3 2736,-138.3"/>
</g>
<!-- StationSelectionComponent -->
<g id="node23" class="node">
<title>StationSelectionComponent</title>
<polygon fill="#ffffb3" stroke="black" points="901.6,-84.8 728.4,-84.8 728.4,-48.8 901.6,-48.8 901.6,-84.8"/>
<text text-anchor="middle" x="815" y="-62.6" font-family="Times,serif" font-size="14.00">StationSelectionComponent</text>
</g>
<!-- StationSelectionComponent&#45;&gt;AppModule -->
<g id="edge23" class="edge">
<title>StationSelectionComponent&#45;&gt;AppModule</title>
<path fill="none" stroke="black" d="M815,-85.08C815,-106.12 815,-137.8 815,-137.8 815,-137.8 2736.34,-137.8 2736.34,-137.8"/>
<polygon fill="black" stroke="black" points="2736.34,-141.3 2746.34,-137.8 2736.34,-134.3 2736.34,-141.3"/>
</g>
<!-- StatusWidgetComponent -->
<g id="node24" class="node">
<title>StatusWidgetComponent</title>
<polygon fill="#ffffb3" stroke="black" points="710.27,-84.8 553.73,-84.8 553.73,-48.8 710.27,-48.8 710.27,-84.8"/>
<text text-anchor="middle" x="632" y="-62.6" font-family="Times,serif" font-size="14.00">StatusWidgetComponent</text>
</g>
<!-- StatusWidgetComponent&#45;&gt;AppModule -->
<g id="edge24" class="edge">
<title>StatusWidgetComponent&#45;&gt;AppModule</title>
<path fill="none" stroke="black" d="M632,-84.84C632,-106.46 632,-139.8 632,-139.8 632,-139.8 2735.9,-139.8 2735.9,-139.8"/>
<polygon fill="black" stroke="black" points="2735.9,-143.3 2745.9,-139.8 2735.9,-136.3 2735.9,-143.3"/>
</g>
<!-- WorkstationConfigComponent -->
<g id="node25" class="node">
<title>WorkstationConfigComponent</title>
<polygon fill="#ffffb3" stroke="black" points="535.93,-84.8 346.07,-84.8 346.07,-48.8 535.93,-48.8 535.93,-84.8"/>
<text text-anchor="middle" x="441" y="-62.6" font-family="Times,serif" font-size="14.00">WorkstationConfigComponent</text>
</g>
<!-- WorkstationConfigComponent&#45;&gt;AppModule -->
<g id="edge25" class="edge">
<title>WorkstationConfigComponent&#45;&gt;AppModule</title>
<path fill="none" stroke="black" d="M441,-84.81C441,-107.29 441,-142.8 441,-142.8 441,-142.8 2736.27,-142.8 2736.27,-142.8"/>
<polygon fill="black" stroke="black" points="2736.27,-146.3 2746.27,-142.8 2736.27,-139.3 2736.27,-146.3"/>
</g>
<!-- AppComponent  -->
<g id="node28" class="node">
<title>AppComponent </title>
<polygon fill="#80b1d3" stroke="black" points="2842.44,-214.8 2733.56,-214.8 2733.56,-178.8 2842.44,-178.8 2842.44,-214.8"/>
<text text-anchor="middle" x="2788" y="-192.6" font-family="Times,serif" font-size="14.00">AppComponent </text>
</g>
<!-- AppModule&#45;&gt;AppComponent  -->
<g id="edge27" class="edge">
<title>AppModule&#45;&gt;AppComponent </title>
<path fill="none" stroke="black" stroke-dasharray="1,5" d="M2788,-149.91C2788,-149.91 2788,-168.79 2788,-168.79"/>
<polygon fill="black" stroke="black" points="2784.5,-168.79 2788,-178.79 2791.5,-168.79 2784.5,-168.79"/>
</g>
<!-- AppRoutingModule -->
<g id="node27" class="node">
<title>AppRoutingModule</title>
<polygon fill="#8dd3c7" stroke="black" points="322.28,-84.8 319.28,-88.8 298.28,-88.8 295.28,-84.8 193.72,-84.8 193.72,-48.8 322.28,-48.8 322.28,-84.8"/>
<text text-anchor="middle" x="258" y="-62.6" font-family="Times,serif" font-size="14.00">AppRoutingModule</text>
</g>
<!-- AppRoutingModule&#45;&gt;AppModule -->
<g id="edge26" class="edge">
<title>AppRoutingModule&#45;&gt;AppModule</title>
<path fill="none" stroke="black" d="M258,-84.89C258,-107.93 258,-144.8 258,-144.8 258,-144.8 2736.2,-144.8 2736.2,-144.8"/>
<polygon fill="black" stroke="black" points="2736.2,-148.3 2746.2,-144.8 2736.2,-141.3 2736.2,-148.3"/>
</g>
<!-- AuthInterceptor -->
<g id="node29" class="node">
<title>AuthInterceptor</title>
<ellipse fill="#fdb462" stroke="black" cx="97" cy="-66.8" rx="72.92" ry="18"/>
<text text-anchor="middle" x="97" y="-62.6" font-family="Times,serif" font-size="14.00">AuthInterceptor</text>
</g>
<!-- AuthInterceptor&#45;&gt;AppModule -->
<g id="edge28" class="edge">
<title>AuthInterceptor&#45;&gt;AppModule</title>
<path fill="none" stroke="black" d="M97,-85.18C97,-109.08 97,-147.8 97,-147.8 97,-147.8 2736.27,-147.8 2736.27,-147.8"/>
<polygon fill="black" stroke="black" points="2736.27,-151.3 2746.27,-147.8 2736.27,-144.3 2736.27,-151.3"/>
</g>
</g>
</svg>
